<svg width="58" height="64" viewBox="0 0 58 64" fill="none" xmlns="http://www.w3.org/2000/svg">
<path d="M16.5 22C17.3284 22 18 22.6716 18 23.5V29.5C18 30.3275 17.3242 30.9985 16.4971 31C15.67 30.9984 15 30.3275 15 29.5L14.998 28L14.999 24L15 23.5C15 22.6716 15.6716 22 16.5 22Z" fill="black"/>
<path d="M22.502 22C23.3295 22.0011 24 22.6722 24 23.5V29.5C24 30.3275 23.3242 30.9985 22.4971 31C21.67 30.9984 21 30.3275 21 29.5V23.5C21 22.6721 21.6742 22.0008 22.502 22Z" fill="black"/>
<path fill-rule="evenodd" clip-rule="evenodd" d="M43.002 0C43.3997 0.000284667 43.7797 0.0778792 44.127 0.21875C44.9067 0.535759 45.5233 1.17189 45.8154 1.96387C45.9131 2.22785 45.9734 2.50959 45.9932 2.80176L46 3V7C46 8.10457 46.8954 9 48 9H55.0068C56.6605 9.00368 58 10.3454 58 12C58 13.6051 56.7394 14.9158 55.1543 14.9961L55 15C54.4477 15 54 15.4477 54 16V21C54 21.5523 54.4477 22 55 22H57.0039L57.1328 22.0088L57.1797 22.0166C57.3909 22.0566 57.5815 22.1626 57.7246 22.3125C57.8503 22.4454 57.9406 22.6128 57.9795 22.7988C57.993 22.864 57.9998 22.931 58 23V34.0029C57.9999 34.1061 57.9947 34.2081 57.9844 34.3086C57.8295 35.8179 56.5511 36.996 55.002 37C54.9478 37.0001 54.884 37.0021 54.8291 37.0049H54.8174L54.8057 37.0059L54.7949 37.0068L54.7656 37.0088L54.7393 37.0107L54.7236 37.0117C54.7048 37.0134 54.6854 37.0156 54.667 37.0176C54.6097 37.0238 54.5563 37.0306 54.5 37.04C53.3777 37.2282 52.4667 38.0409 52.1348 39.1074C52.1055 39.2014 52.0805 39.2979 52.0605 39.3955L52.0537 39.4316C52.0326 39.542 52.0175 39.6552 52.0088 39.7695L52.0078 39.7881C52.0029 39.858 52 39.9288 52 40C52 41.6568 53.3383 43 54.9951 43V43.0508C55.1568 43.0176 55.3335 43.0003 55.5049 43C56.8822 43.0026 57.9981 44.1264 58 45.5039C57.9997 45.6738 57.9827 45.8397 57.9502 46H58V53.5039C57.9988 54.0262 57.9089 54.5339 57.7441 55C57.292 56.2793 56.2777 57.2936 54.998 57.7451C54.5296 57.9104 54.025 58 53.5 58H38C35.9804 58 34.3108 59.4967 34.0391 61.4414C34.0373 61.4538 34.0358 61.4661 34.0342 61.4785C34.012 61.6492 34 61.8232 34 62V62.5C34 63.3284 33.3284 64 32.5 64H24C22.395 64 21.0844 62.7356 21.0039 61.1504L20.9961 60.8418C20.9158 59.2569 19.6051 58 18 58C17.9093 58.0002 17.8103 58.0047 17.7217 58.0127C17.0441 58.0742 16.4341 58.3614 15.9639 58.7979L15.9424 58.8174C15.6947 59.0518 15.4865 59.3286 15.3291 59.6357C15.2977 59.697 15.2685 59.7597 15.2412 59.8232L15.2354 59.8359C15.2265 59.8568 15.2183 59.8783 15.21 59.8994C15.1108 60.1492 15.0438 60.4158 15.0156 60.6934C15.0054 60.7941 15 60.8965 15 61V61.5039C14.9979 62.8828 13.8794 64 12.5 64H9V63.9502C8.83846 63.983 8.67122 64 8.5 64C7.11929 64 6 62.8807 6 61.5V60.5C6 59.1193 4.88071 58 3.5 58C3.33025 58 3.16329 57.9882 3 57.9648C1.46716 57.7456 0.254416 56.5328 0.0351562 55C0.0118011 54.8367 3.62045e-07 54.6697 0 54.5V10.4971C0.00945152 9.67922 0.684894 9.00423 1.50391 9C1.55462 8.99991 1.60377 8.99722 1.65332 8.99219C1.73605 8.98379 1.81731 8.96856 1.89551 8.94727L1.90527 8.94434L1.92871 8.9375C2.5482 8.75302 3 8.17942 3 7.5V4.5C3.00017 4.40969 3.00886 4.32131 3.02441 4.23535L3.02734 4.21875L3.03125 4.19824C3.17267 3.51608 3.77901 3.00123 4.50195 3H12.0234L12.1045 3.00195L12.2686 3.01172L12.3027 3.01562C13.7763 3.16746 14.9406 4.38494 14.998 5.88379L15 6V10.4971C15 10.5116 15.0005 10.5295 15.001 10.5439C15.0016 10.5636 15.0026 10.5831 15.0039 10.6025C15.0045 10.6113 15.0051 10.6202 15.0059 10.6289C15.0069 10.6403 15.0075 10.6517 15.0088 10.6631C15.0137 10.7082 15.0213 10.753 15.0303 10.7969C15.1471 11.3785 15.5997 11.8383 16.1777 11.9648C16.1876 11.967 16.2059 11.9707 16.2158 11.9727C16.2657 11.9822 16.3167 11.9896 16.3682 11.9941C16.3875 11.9958 16.4072 11.9971 16.4268 11.998C16.4384 11.9986 16.4572 11.9997 16.4688 12H16.5C17.3284 12 18 11.3284 18 10.5V7.49707C18.0002 7.41153 18.0065 7.33357 18.0205 7.25195C18.0225 7.23997 18.025 7.2277 18.0273 7.21582L18.0312 7.19531C18.0748 6.98497 18.1634 6.79113 18.2852 6.62305L18.2969 6.60645C18.4955 6.34019 18.7799 6.14091 19.1094 6.05176L19.125 6.04785C19.1974 6.0291 19.2724 6.01561 19.3486 6.00781L19.3672 6.00586L19.501 6H22.5C23.3284 6 24 5.32843 24 4.5V3H24.0498C24.0173 2.83985 24.0003 2.66968 24 2.5C24.0024 1.12132 25.1208 0 26.5 0H43.002ZM10.373 15.0049C10.3367 15.008 10.2954 15.013 10.2598 15.0186C10.2226 15.0245 10.1836 15.0323 10.1475 15.041C10.0168 15.0722 9.8961 15.1191 9.7832 15.1807L9.76758 15.1895L9.75098 15.1982L9.74219 15.2041L9.73145 15.21L9.71582 15.2197L9.69922 15.2295L9.66992 15.249L9.65625 15.2578L9.64355 15.2666L9.63477 15.2725L9.62695 15.2783L9.61426 15.2871L9.60352 15.2959L9.58594 15.3086L9.57324 15.3184L9.56543 15.3252L9.55469 15.334L9.5459 15.3408L9.5332 15.3516L9.52441 15.3594C9.31528 15.5386 9.15582 15.775 9.07031 16.0439L9.06641 16.0557C9.05768 16.0839 9.05004 16.1126 9.04297 16.1416C9.03263 16.184 9.02424 16.2278 9.01758 16.2715L9.0127 16.3008L9.00977 16.3271C9.0078 16.3444 9.00626 16.3625 9.00488 16.3799L9.00391 16.3936C9.00163 16.4279 9 16.4662 9 16.5V38.5039C9.00212 40.9874 11.016 43 13.5 43H15.0059C16.66 43.0032 18 44.3451 18 46V48.5C18 50.433 19.567 52 21.5 52H22.5059C23.2799 52.003 23.9156 52.5922 23.9922 53.3467L24.0078 53.6533C24.0846 54.4097 24.7233 55 25.5 55H29.5C30.3284 55 31 54.3255 31 53.4971C31.0016 52.6719 31.6694 52.0032 32.4941 52H35.5C36.3284 52 37 51.3235 37 50.4951C37.0026 49.6709 37.67 49.0032 38.4941 49H41.5C42.3284 49 43 48.3284 43 47.5C43 46.6717 42.3263 46.0002 41.498 46H34.5C34.3302 46 34.1633 45.9882 34 45.9648C32.4672 45.7456 31.2544 44.5328 31.0352 43C31.012 42.8381 31.0002 42.6644 31 42.4961V40.4961C31.002 38.8173 32.1862 37.4148 33.7646 37.0771C33.8422 37.0606 33.9207 37.0465 34 37.0352C34.1617 37.012 34.3369 37.0002 34.5049 37H38.5C38.5706 37 38.64 36.9948 38.708 36.9854C38.7464 36.98 38.7848 36.973 38.8223 36.9648L38.8428 36.9609C39.2406 36.8679 39.5773 36.616 39.7832 36.2764C39.7946 36.2575 39.8058 36.2382 39.8164 36.2188C39.9332 36.0053 40 35.7605 40 35.5V35.4697C39.9994 35.4409 39.9973 35.4122 39.9951 35.3838L39.9941 35.3623L39.9922 35.3457C39.9149 34.5898 39.2763 34 38.5 34H37C36.793 34 36.5907 33.9794 36.3955 33.9395C35.0285 33.6597 34 32.4497 34 31V25.5C34 24.6716 33.3314 24 32.5029 24H32C31.4477 24 31 23.5523 31 23V19.5C31 18.6728 31.6761 18.0019 32.5029 18H35.502C36.3295 17.9989 37 17.3278 37 16.5C37 15.6722 36.3295 15.0011 35.502 15H22.5C22.418 15 22.3372 15.0069 22.2588 15.0195L22.2422 15.0225L22.2246 15.0254C22.092 15.05 21.9655 15.0924 21.8477 15.1494L21.8262 15.1602C21.6195 15.2643 21.44 15.4144 21.3018 15.5977L21.2871 15.6172L21.2744 15.6348C21.2125 15.7223 21.1594 15.817 21.1172 15.917C21.1079 15.9391 21.0991 15.9617 21.0908 15.9844C21.032 16.1451 21 16.3188 21 16.5C21 17.3284 20.3284 18 19.5 18H13.5C12.7233 18 12.0846 17.4097 12.0078 16.6533L11.9922 16.3467C11.987 16.2962 11.9798 16.2461 11.9697 16.1973C11.9657 16.1776 11.9609 16.1581 11.9561 16.1387C11.949 16.1101 11.9413 16.0816 11.9326 16.0537C11.8837 15.8971 11.8081 15.7501 11.7139 15.6201L11.7012 15.6035L11.6895 15.5869L11.6826 15.5781L11.668 15.5596L11.6572 15.5469L11.6504 15.5391L11.6436 15.5303L11.6221 15.5059L11.6055 15.4873L11.5908 15.4717L11.5791 15.46L11.5674 15.4473L11.5586 15.4385C11.3041 15.185 10.9593 15.022 10.5771 15.002L10.5605 15.001H10.5459L10.5332 15H10.4609C10.4306 15.0007 10.4029 15.0023 10.373 15.0049ZM12 46C11.015 46 10.1427 46.4759 9.5957 47.209C9.589 47.2179 9.58278 47.2273 9.57617 47.2363C9.53183 47.2972 9.48995 47.3596 9.4502 47.4238C9.43464 47.4488 9.4201 47.4745 9.40527 47.5C9.28513 47.7074 9.18721 47.9291 9.11914 48.1641C9.10068 48.2273 9.08463 48.2915 9.07031 48.3564C9.02497 48.5638 9 48.779 9 49C9 49.2151 9.02339 49.4247 9.06641 49.627C9.08207 49.7 9.10116 49.7718 9.12207 49.8428C9.13067 49.8722 9.13896 49.9016 9.14844 49.9307C9.16721 49.9878 9.18789 50.0441 9.20996 50.0996C9.26416 50.237 9.32931 50.3685 9.40234 50.4951C9.41774 50.5216 9.43304 50.5482 9.44922 50.5742C9.97785 51.429 10.9212 52 12 52C13.6569 52 15 50.6569 15 49C15 47.3431 13.6569 46 12 46ZM47.4961 46C46.6677 46.0001 46 46.6716 46 47.5C46 48.3284 46.6716 49 47.5 49H50.5C51.3284 49 52 48.3284 52 47.5C52 46.6716 51.3245 46 50.4961 46H47.4961ZM47.5 28C46.6716 28 46 28.6716 46 29.5C46 30.3284 46.6716 31 47.5 31H50.5C51.3284 31 52 30.3284 52 29.5C52 29.4434 51.9973 29.387 51.9912 29.332C51.9077 28.5826 51.2717 28 50.5 28H47.5ZM38.3691 6.00586C38.3475 6.0077 38.326 6.00995 38.3047 6.0127C38.273 6.01679 38.241 6.02127 38.21 6.02734L38.1943 6.03027C38.0341 6.06338 37.8755 6.12712 37.7383 6.20703C37.6602 6.25291 37.5878 6.30487 37.5205 6.36328L37.5117 6.37109L37.4961 6.38477C37.4794 6.39983 37.4634 6.4157 37.4473 6.43164C37.202 6.67451 37.0394 7.00273 37.0059 7.36621L37.0049 7.37598L37.0039 7.3916L37.0029 7.41113L37.002 7.42773L37.001 7.45215V7.46289L37 7.48438V7.50586C37.0019 8.33267 37.6727 9 38.5 9C39.3284 9 40 8.32843 40 7.5C40 6.72352 39.4069 6.08485 38.6504 6.00781C38.6031 6.00301 38.5446 6.00031 38.4961 6H38.4775C38.4412 6.00046 38.4048 6.00284 38.3691 6.00586Z" fill="black"/>
</svg>
